<svg width="202" height="80" viewBox="0 0 202 80" fill="none" xmlns="http://www.w3.org/2000/svg">
<g id="Group 5">
<g id="Ellipse 1" filter="url(#filter0_d_428_58)">
<circle cx="38" cy="19" r="4" fill="#FDFDFD"/>
</g>
<g id="Ellipse 38" filter="url(#filter1_d_428_58)">
<circle cx="38" cy="62" r="4" fill="#FDFDFD"/>
</g>
<g id="Ellipse 2" filter="url(#filter2_d_428_58)">
<circle cx="56" cy="19" r="4" fill="#FDFDFD"/>
</g>
<g id="Ellipse 39" filter="url(#filter3_d_428_58)">
<circle cx="56" cy="62" r="4" fill="#FDFDFD"/>
</g>
<g id="Ellipse 3" filter="url(#filter4_d_428_58)">
<circle cx="74" cy="19" r="4" fill="#FDFDFD"/>
</g>
<g id="Ellipse 40" filter="url(#filter5_d_428_58)">
<circle cx="74" cy="62" r="4" fill="#FDFDFD"/>
</g>
<g id="Ellipse 4" filter="url(#filter6_d_428_58)">
<circle cx="92" cy="19" r="4" fill="#FDFDFD"/>
</g>
<g id="Ellipse 41" filter="url(#filter7_d_428_58)">
<circle cx="92" cy="62" r="4" fill="#FDFDFD"/>
</g>
<g id="Ellipse 5" filter="url(#filter8_d_428_58)">
<circle cx="110" cy="19" r="4" fill="#FDFDFD"/>
</g>
<g id="Ellipse 42" filter="url(#filter9_d_428_58)">
<circle cx="110" cy="62" r="4" fill="#FDFDFD"/>
</g>
<g id="Ellipse 6" filter="url(#filter10_d_428_58)">
<circle cx="128" cy="19" r="4" fill="#FDFDFD"/>
</g>
<g id="Ellipse 43" filter="url(#filter11_d_428_58)">
<circle cx="128" cy="62" r="4" fill="#FDFDFD"/>
</g>
<g id="Ellipse 7" filter="url(#filter12_d_428_58)">
<circle cx="146" cy="19" r="4" fill="#FDFDFD"/>
</g>
<g id="Ellipse 45" filter="url(#filter13_d_428_58)">
<circle cx="164" cy="19" r="4" fill="#FDFDFD"/>
</g>
<g id="Ellipse 44" filter="url(#filter14_d_428_58)">
<circle cx="146" cy="62" r="4" fill="#FDFDFD"/>
</g>
<g id="Ellipse 46" filter="url(#filter15_d_428_58)">
<circle cx="164" cy="62" r="4" fill="#FDFDFD"/>
</g>
<g id="SIXMAN" filter="url(#filter16_d_428_58)">
<path d="M42.4448 50.2563C40.9963 50.2563 39.7104 50.118 38.5874 49.8413C37.4644 49.5646 36.3454 49.0438 35.2305 48.2788V43.6646H38.5386L38.9048 46.0327C39.1652 46.3257 39.625 46.5739 40.2842 46.7773C40.9434 46.9727 41.6636 47.0703 42.4448 47.0703C44.0968 47.0703 44.9229 46.4925 44.9229 45.3369C44.9229 44.8079 44.7194 44.3604 44.3125 43.9941C43.9056 43.6198 43.1976 43.2373 42.1885 42.8467C40.6667 42.3584 39.4175 41.862 38.4409 41.3574C37.4644 40.8529 36.736 40.2547 36.2559 39.563C35.7839 38.8713 35.5479 38.0127 35.5479 36.9873C35.5479 36.0026 35.8286 35.144 36.3901 34.4116C36.9517 33.6711 37.7248 33.0892 38.7095 32.666C39.6942 32.2428 40.8213 32.019 42.0908 31.9946C43.5394 31.9621 44.8211 32.1086 45.936 32.4341C47.0509 32.7515 48.0356 33.2357 48.8901 33.8867V38.1714H45.7163L45.2158 35.791C44.9391 35.6527 44.5444 35.5265 44.0317 35.4126C43.519 35.2987 42.9738 35.2417 42.396 35.2417C41.6554 35.2417 41.041 35.3882 40.5527 35.6812C40.0645 35.9741 39.8203 36.4136 39.8203 36.9995C39.8203 37.3169 39.9139 37.6017 40.1011 37.854C40.2882 38.0981 40.6178 38.3464 41.0898 38.5986C41.5618 38.8428 42.221 39.1276 43.0674 39.4531C45.0856 40.0472 46.6156 40.7918 47.6572 41.687C48.707 42.5741 49.2319 43.7826 49.2319 45.3125C49.2319 46.3623 48.9471 47.2575 48.3774 47.998C47.8078 48.7305 47.0143 49.292 45.9971 49.6826C44.9798 50.0651 43.7957 50.2563 42.4448 50.2563ZM55.1963 50V47.4976L57.0396 47.1069V35.1318L55.1963 34.7412V32.2266H63.1553V34.7412L61.312 35.1318V47.1069L63.1553 47.4976V50H55.1963ZM68.5947 50V47.4976L70.1694 47.1802L74.8936 41.333L70.377 35.0708L69.0098 34.7412V32.2266H76.688V34.7412L74.979 34.8999L77.4937 38.4277L80.106 34.8999L78.4824 34.7412V32.2266H85.9775V34.7412L84.4395 35.0708L80.0571 40.8203L85.0132 47.168L86.771 47.4976V50H78.8608V47.4976L80.2769 47.3511L77.5425 43.6157L74.6982 47.3511L76.1021 47.4976V50H68.5947ZM92.2715 50V47.4976L94.1025 47.1069V35.1318L92.2715 34.7412V32.2266H100.658L104.955 43.9331H105.028L109.203 32.2266H117.491V34.7412L115.648 35.1318V47.1069L117.491 47.4976V50H109.532V47.4976L111.449 47.1069V44.7876L111.546 36.4258L111.473 36.4136L106.444 50H103.075L97.9722 36.5723L97.8867 36.5845L98.1797 44.2017V47.1069L100.243 47.4976V50H92.2715ZM121.112 50V47.4976L122.357 47.3145L127.655 32.2266H132.293L137.604 47.3145L138.849 47.4976V50H132.208V47.4976L133.368 47.2778L132.831 45.3491H127.118L126.605 47.2778L127.765 47.4976V50H121.112ZM128.021 42.3462H131.915L130.182 36.9629L129.986 36.3403H129.913L129.706 37.0239L128.021 42.3462ZM144.618 50V47.4976L146.449 47.1069V35.1318L144.618 34.7412V32.2266H150.807L157.936 43.6035H158.009V35.1318L155.677 34.7412V32.2266H163.648V34.7412L161.805 35.1318V50H157.582L150.318 38.8672H150.245V47.1069L152.589 47.4976V50H144.618Z" fill="#FDFDFD"/>
<path d="M35.2305 48.2788H34.2305V48.8054L34.6647 49.1034L35.2305 48.2788ZM35.2305 43.6646V42.6646H34.2305V43.6646H35.2305ZM38.5386 43.6646L39.5268 43.5117L39.3958 42.6646H38.5386V43.6646ZM38.9048 46.0327L37.9165 46.1855L37.9616 46.4768L38.1574 46.6971L38.9048 46.0327ZM40.2842 46.7773L39.9892 47.7329L40.0001 47.7361L40.2842 46.7773ZM44.3125 43.9941L43.6354 44.7301L43.6435 44.7374L44.3125 43.9941ZM42.1885 42.8467L42.5495 41.9141L42.522 41.9035L42.494 41.8945L42.1885 42.8467ZM36.2559 39.563L35.4298 40.1266L35.4344 40.1332L36.2559 39.563ZM36.3901 34.4116L37.1838 35.0201L37.187 35.0158L36.3901 34.4116ZM38.7095 32.666L38.3146 31.7473L38.7095 32.666ZM42.0908 31.9946L42.11 32.9944L42.1133 32.9944L42.0908 31.9946ZM45.936 32.4341L45.6558 33.394L45.6622 33.3959L45.936 32.4341ZM48.8901 33.8867H49.8901V33.3914L49.4962 33.0913L48.8901 33.8867ZM48.8901 38.1714V39.1714H49.8901V38.1714H48.8901ZM45.7163 38.1714L44.7377 38.3771L44.9047 39.1714H45.7163V38.1714ZM45.2158 35.791L46.1944 35.5853L46.095 35.1126L45.663 34.8966L45.2158 35.791ZM40.1011 37.854L39.298 38.4499L39.3027 38.4562L39.3075 38.4624L40.1011 37.854ZM41.0898 38.5986L40.6184 39.4806L40.6304 39.4869L41.0898 38.5986ZM43.0674 39.4531L42.7084 40.3865L42.7462 40.401L42.785 40.4124L43.0674 39.4531ZM47.6572 41.687L47.0054 42.4455L47.0118 42.4508L47.6572 41.687ZM48.3774 47.998L49.1668 48.612L49.1701 48.6078L48.3774 47.998ZM45.9971 49.6826L46.349 50.6187L46.3555 50.6162L45.9971 49.6826ZM42.4448 49.2563C41.0576 49.2563 39.8547 49.1236 38.8266 48.8703L38.3482 50.8123C39.5662 51.1124 40.9349 51.2563 42.4448 51.2563V49.2563ZM38.8266 48.8703C37.8383 48.6268 36.8284 48.1625 35.7962 47.4542L34.6647 49.1034C35.8623 49.9251 37.0905 50.5024 38.3482 50.8123L38.8266 48.8703ZM36.2305 48.2788V43.6646H34.2305V48.2788H36.2305ZM35.2305 44.6646H38.5386V42.6646H35.2305V44.6646ZM37.5503 43.8174L37.9165 46.1855L39.893 45.8799L39.5268 43.5117L37.5503 43.8174ZM38.1574 46.6971C38.6 47.1951 39.2709 47.5111 39.9893 47.7329L40.5791 45.8218C39.9791 45.6366 39.7304 45.4563 39.6522 45.3684L38.1574 46.6971ZM40.0001 47.7361C40.7631 47.9622 41.5803 48.0703 42.4448 48.0703V46.0703C41.7469 46.0703 41.1237 45.9831 40.5683 45.8185L40.0001 47.7361ZM42.4448 48.0703C43.3567 48.0703 44.2189 47.9164 44.8765 47.4564C45.5993 46.9508 45.9229 46.186 45.9229 45.3369H43.9229C43.9229 45.6435 43.8334 45.7453 43.7302 45.8175C43.5618 45.9353 43.1849 46.0703 42.4448 46.0703V48.0703ZM45.9229 45.3369C45.9229 44.5134 45.5907 43.7992 44.9815 43.2508L43.6435 44.7374C43.8481 44.9215 43.9229 45.1025 43.9229 45.3369H45.9229ZM44.9896 43.2582C44.4393 42.752 43.5854 42.3151 42.5495 41.9141L41.8275 43.7792C42.8098 44.1595 43.3719 44.4876 43.6354 44.7301L44.9896 43.2582ZM42.494 41.8945C41.0036 41.4163 39.8105 40.9395 38.8999 40.469L37.9819 42.2458C39.0244 42.7845 40.3298 43.3005 41.883 43.7989L42.494 41.8945ZM38.8999 40.469C38.0255 40.0172 37.4404 39.5158 37.0774 38.9928L35.4344 40.1332C36.0316 40.9937 36.9032 41.6885 37.9819 42.2458L38.8999 40.469ZM37.0819 38.9993C36.7465 38.5078 36.5479 37.8572 36.5479 36.9873H34.5479C34.5479 38.1682 34.8212 39.2347 35.4298 40.1266L37.0819 38.9993ZM36.5479 36.9873C36.5479 36.2069 36.7653 35.5658 37.1837 35.0201L35.5965 33.8032C34.8919 34.7223 34.5479 35.7983 34.5479 36.9873H36.5479ZM37.187 35.0158C37.6289 34.433 38.2539 33.9502 39.1043 33.5848L38.3146 31.7473C37.1956 32.2282 36.2744 32.9091 35.5933 33.8074L37.187 35.0158ZM39.1043 33.5848C39.9504 33.2211 40.9463 33.0168 42.11 32.9944L42.0716 30.9948C40.6962 31.0213 39.4379 31.2645 38.3146 31.7473L39.1043 33.5848ZM42.1133 32.9944C43.4837 32.9636 44.66 33.1033 45.6558 33.394L46.2163 31.4742C44.9823 31.1139 43.5951 30.9606 42.0684 30.9949L42.1133 32.9944ZM45.6622 33.3959C46.6665 33.6818 47.5366 34.1126 48.2841 34.6822L49.4962 33.0913C48.5347 32.3587 47.4353 31.8212 46.2098 31.4723L45.6622 33.3959ZM47.8901 33.8867V38.1714H49.8901V33.8867H47.8901ZM48.8901 37.1714H45.7163V39.1714H48.8901V37.1714ZM46.6949 37.9656L46.1944 35.5853L44.2372 35.9968L44.7377 38.3771L46.6949 37.9656ZM45.663 34.8966C45.2799 34.705 44.794 34.5576 44.2487 34.4364L43.8148 36.3888C44.2948 36.4955 44.5983 36.6003 44.7686 36.6854L45.663 34.8966ZM44.2487 34.4364C43.6581 34.3052 43.0396 34.2417 42.396 34.2417V36.2417C42.908 36.2417 43.38 36.2922 43.8148 36.3888L44.2487 34.4364ZM42.396 34.2417C41.5275 34.2417 40.722 34.4134 40.0382 34.8237L41.0672 36.5386C41.36 36.363 41.7834 36.2417 42.396 36.2417V34.2417ZM40.0382 34.8237C39.2382 35.3037 38.8203 36.0748 38.8203 36.9995H40.8203C40.8203 36.7524 40.8907 36.6446 41.0672 36.5386L40.0382 34.8237ZM38.8203 36.9995C38.8203 37.5291 38.9815 38.0233 39.298 38.4499L40.9042 37.2582C40.8463 37.1801 40.8203 37.1047 40.8203 36.9995H38.8203ZM39.3075 38.4624C39.6232 38.8742 40.1004 39.2036 40.6185 39.4806L41.5612 37.7167C41.1353 37.4891 40.9533 37.3221 40.8947 37.2456L39.3075 38.4624ZM40.6304 39.4869C41.1499 39.7555 41.848 40.0556 42.7084 40.3865L43.4264 38.5198C42.594 38.1996 41.9738 37.93 41.5493 37.7104L40.6304 39.4869ZM42.785 40.4124C44.7325 40.9857 46.1131 41.6785 47.0055 42.4454L48.309 40.9286C47.1181 39.9051 45.4387 39.1087 43.3498 38.4938L42.785 40.4124ZM47.0118 42.4508C47.8096 43.1249 48.2319 44.0394 48.2319 45.3125H50.2319C50.2319 43.5257 49.6045 42.0232 48.3026 40.9232L47.0118 42.4508ZM48.2319 45.3125C48.2319 46.1704 48.0035 46.844 47.5848 47.3883L49.1701 48.6078C49.8907 47.6709 50.2319 46.5542 50.2319 45.3125H48.2319ZM47.5881 47.3841C47.1485 47.9493 46.5158 48.4122 45.6386 48.7491L46.3555 50.6162C47.5129 50.1717 48.4671 49.5116 49.1668 48.612L47.5881 47.3841ZM45.6451 48.7466C44.764 49.0779 43.7037 49.2563 42.4448 49.2563V51.2563C43.8878 51.2563 45.1956 51.0523 46.349 50.6186L45.6451 48.7466ZM55.1963 50H54.1963V51H55.1963V50ZM55.1963 47.4976L54.989 46.5193L54.1963 46.6873V47.4976H55.1963ZM57.0396 47.1069L57.2469 48.0852L58.0396 47.9172V47.1069H57.0396ZM57.0396 35.1318H58.0396V34.3215L57.2469 34.1536L57.0396 35.1318ZM55.1963 34.7412H54.1963V35.5515L54.989 35.7195L55.1963 34.7412ZM55.1963 32.2266V31.2266H54.1963V32.2266H55.1963ZM63.1553 32.2266H64.1553V31.2266H63.1553V32.2266ZM63.1553 34.7412L63.3626 35.7195L64.1553 35.5515V34.7412H63.1553ZM61.312 35.1318L61.1047 34.1536L60.312 34.3215V35.1318H61.312ZM61.312 47.1069H60.312V47.9172L61.1047 48.0852L61.312 47.1069ZM63.1553 47.4976H64.1553V46.6873L63.3626 46.5193L63.1553 47.4976ZM63.1553 50V51H64.1553V50H63.1553ZM56.1963 50V47.4976H54.1963V50H56.1963ZM55.4036 48.4758L57.2469 48.0852L56.8322 46.1287L54.989 46.5193L55.4036 48.4758ZM58.0396 47.1069V35.1318H56.0396V47.1069H58.0396ZM57.2469 34.1536L55.4036 33.7629L54.989 35.7195L56.8322 36.1101L57.2469 34.1536ZM56.1963 34.7412V32.2266H54.1963V34.7412H56.1963ZM55.1963 33.2266H63.1553V31.2266H55.1963V33.2266ZM62.1553 32.2266V34.7412H64.1553V32.2266H62.1553ZM62.948 33.7629L61.1047 34.1536L61.5193 36.1101L63.3626 35.7195L62.948 33.7629ZM60.312 35.1318V47.1069H62.312V35.1318H60.312ZM61.1047 48.0852L62.948 48.4758L63.3626 46.5193L61.5193 46.1287L61.1047 48.0852ZM62.1553 47.4976V50H64.1553V47.4976H62.1553ZM63.1553 49H55.1963V51H63.1553V49ZM68.5947 50H67.5947V51H68.5947V50ZM68.5947 47.4976L68.3971 46.5173L67.5947 46.679V47.4976H68.5947ZM70.1694 47.1802L70.367 48.1605L70.7206 48.0892L70.9473 47.8086L70.1694 47.1802ZM74.8936 41.333L75.6714 41.9615L76.1513 41.3674L75.7046 40.748L74.8936 41.333ZM70.377 35.0708L71.188 34.4858L70.9714 34.1854L70.6113 34.0987L70.377 35.0708ZM69.0098 34.7412H68.0098V35.5288L68.7754 35.7134L69.0098 34.7412ZM69.0098 32.2266V31.2266H68.0098V32.2266H69.0098ZM76.688 32.2266H77.688V31.2266H76.688V32.2266ZM76.688 34.7412L76.7804 35.7369L77.688 35.6527V34.7412H76.688ZM74.979 34.8999L74.8865 33.9042L73.1558 34.0649L74.1647 35.4803L74.979 34.8999ZM77.4937 38.4277L76.6793 39.0082L77.4782 40.129L78.2973 39.0228L77.4937 38.4277ZM80.106 34.8999L80.9096 35.495L81.9601 34.0764L80.2032 33.9046L80.106 34.8999ZM78.4824 34.7412H77.4824V35.6482L78.3851 35.7365L78.4824 34.7412ZM78.4824 32.2266V31.2266H77.4824V32.2266H78.4824ZM85.9775 32.2266H86.9775V31.2266H85.9775V32.2266ZM85.9775 34.7412L86.1871 35.719L86.9775 35.5496V34.7412H85.9775ZM84.4395 35.0708L84.2299 34.093L83.8683 34.1705L83.6441 34.4646L84.4395 35.0708ZM80.0571 40.8203L79.2618 40.2141L78.7942 40.8277L79.2689 41.4357L80.0571 40.8203ZM85.0132 47.168L84.225 47.7834L84.4575 48.0812L84.8289 48.1508L85.0132 47.168ZM86.771 47.4976H87.771V46.6676L86.9553 46.5147L86.771 47.4976ZM86.771 50V51H87.771V50H86.771ZM78.8608 50H77.8608V51H78.8608V50ZM78.8608 47.4976L78.7579 46.5029L77.8608 46.5957V47.4976H78.8608ZM80.2769 47.3511L80.3798 48.3458L82.113 48.1665L81.0838 46.7604L80.2769 47.3511ZM77.5425 43.6157L78.3494 43.025L77.5583 41.9443L76.7469 43.0099L77.5425 43.6157ZM74.6982 47.3511L73.9026 46.7453L72.8246 48.161L74.5945 48.3457L74.6982 47.3511ZM76.1021 47.4976H77.1021V46.5965L76.2058 46.503L76.1021 47.4976ZM76.1021 50V51H77.1021V50H76.1021ZM69.5947 50V47.4976H67.5947V50H69.5947ZM68.7923 48.4778L70.367 48.1605L69.9719 46.1999L68.3971 46.5173L68.7923 48.4778ZM70.9473 47.8086L75.6714 41.9615L74.1157 40.7046L69.3916 46.5517L70.9473 47.8086ZM75.7046 40.748L71.188 34.4858L69.5659 35.6558L74.0825 41.918L75.7046 40.748ZM70.6113 34.0987L69.2441 33.7691L68.7754 35.7134L70.1426 36.043L70.6113 34.0987ZM70.0098 34.7412V32.2266H68.0098V34.7412H70.0098ZM69.0098 33.2266H76.688V31.2266H69.0098V33.2266ZM75.688 32.2266V34.7412H77.688V32.2266H75.688ZM76.5955 33.7455L74.8865 33.9042L75.0715 35.8956L76.7804 35.7369L76.5955 33.7455ZM74.1647 35.4803L76.6793 39.0082L78.308 37.8473L75.7933 34.3195L74.1647 35.4803ZM78.2973 39.0228L80.9096 35.495L79.3023 34.3048L76.69 37.8326L78.2973 39.0228ZM80.2032 33.9046L78.5797 33.746L78.3851 35.7365L80.0087 35.8952L80.2032 33.9046ZM79.4824 34.7412V32.2266H77.4824V34.7412H79.4824ZM78.4824 33.2266H85.9775V31.2266H78.4824V33.2266ZM84.9775 32.2266V34.7412H86.9775V32.2266H84.9775ZM85.768 33.7634L84.2299 34.093L84.649 36.0486L86.1871 35.719L85.768 33.7634ZM83.6441 34.4646L79.2618 40.2141L80.8524 41.4265L85.2348 35.677L83.6441 34.4646ZM79.2689 41.4357L84.225 47.7834L85.8014 46.5526L80.8453 40.2049L79.2689 41.4357ZM84.8289 48.1508L86.5867 48.4804L86.9553 46.5147L85.1975 46.1851L84.8289 48.1508ZM85.771 47.4976V50H87.771V47.4976H85.771ZM86.771 49H78.8608V51H86.771V49ZM79.8608 50V47.4976H77.8608V50H79.8608ZM78.9637 48.4923L80.3798 48.3458L80.174 46.3564L78.7579 46.5029L78.9637 48.4923ZM81.0838 46.7604L78.3494 43.025L76.7356 44.2064L79.4699 47.9418L81.0838 46.7604ZM76.7469 43.0099L73.9026 46.7453L75.4939 47.9569L78.3381 44.2215L76.7469 43.0099ZM74.5945 48.3457L75.9983 48.4922L76.2058 46.503L74.802 46.3565L74.5945 48.3457ZM75.1021 47.4976V50H77.1021V47.4976H75.1021ZM76.1021 49H68.5947V51H76.1021V49ZM92.2715 50H91.2715V51H92.2715V50ZM92.2715 47.4976L92.0628 46.5196L91.2715 46.6884V47.4976H92.2715ZM94.1025 47.1069L94.3112 48.0849L95.1025 47.9161V47.1069H94.1025ZM94.1025 35.1318H95.1025V34.3227L94.3112 34.1538L94.1025 35.1318ZM92.2715 34.7412H91.2715V35.5504L92.0628 35.7192L92.2715 34.7412ZM92.2715 32.2266V31.2266H91.2715V32.2266H92.2715ZM100.658 32.2266L101.596 31.882L101.356 31.2266H100.658V32.2266ZM104.955 43.9331L104.016 44.2777L104.256 44.9331H104.955V43.9331ZM105.028 43.9331V44.9331H105.733L105.97 44.269L105.028 43.9331ZM109.203 32.2266V31.2266H108.498L108.261 31.8907L109.203 32.2266ZM117.491 32.2266H118.491V31.2266H117.491V32.2266ZM117.491 34.7412L117.699 35.7195L118.491 35.5515V34.7412H117.491ZM115.648 35.1318L115.441 34.1536L114.648 34.3215V35.1318H115.648ZM115.648 47.1069H114.648V47.9172L115.441 48.0852L115.648 47.1069ZM117.491 47.4976H118.491V46.6873L117.699 46.5193L117.491 47.4976ZM117.491 50V51H118.491V50H117.491ZM109.532 50H108.532V51H109.532V50ZM109.532 47.4976L109.333 46.5177L108.532 46.6808V47.4976H109.532ZM111.449 47.1069L111.648 48.0868L112.449 47.9237V47.1069H111.449ZM111.449 44.7876L110.449 44.7759V44.7876H111.449ZM111.546 36.4258L112.546 36.4375L112.556 35.5803L111.711 35.4394L111.546 36.4258ZM111.473 36.4136L111.638 35.4272L110.822 35.2913L110.535 36.0664L111.473 36.4136ZM106.444 50V51H107.14L107.382 50.3471L106.444 50ZM103.075 50L102.14 50.3552L102.385 51H103.075V50ZM97.9722 36.5723L98.907 36.217L98.6228 35.4692L97.8307 35.5823L97.9722 36.5723ZM97.8867 36.5845L97.7453 35.5945L96.8528 35.722L96.8875 36.6229L97.8867 36.5845ZM98.1797 44.2017H99.1797V44.1824L99.1789 44.1632L98.1797 44.2017ZM98.1797 47.1069H97.1797V47.9354L97.9936 48.0895L98.1797 47.1069ZM100.243 47.4976H101.243V46.6691L100.429 46.515L100.243 47.4976ZM100.243 50V51H101.243V50H100.243ZM93.2715 50V47.4976H91.2715V50H93.2715ZM92.4801 48.4756L94.3112 48.0849L93.8939 46.1289L92.0628 46.5196L92.4801 48.4756ZM95.1025 47.1069V35.1318H93.1025V47.1069H95.1025ZM94.3112 34.1538L92.4801 33.7632L92.0628 35.7192L93.8939 36.1098L94.3112 34.1538ZM93.2715 34.7412V32.2266H91.2715V34.7412H93.2715ZM92.2715 33.2266H100.658V31.2266H92.2715V33.2266ZM99.719 32.5711L104.016 44.2777L105.893 43.5885L101.596 31.882L99.719 32.5711ZM104.955 44.9331H105.028V42.9331H104.955V44.9331ZM105.97 44.269L110.145 32.5625L108.261 31.8907L104.086 43.5972L105.97 44.269ZM109.203 33.2266H117.491V31.2266H109.203V33.2266ZM116.491 32.2266V34.7412H118.491V32.2266H116.491ZM117.284 33.7629L115.441 34.1536L115.855 36.1101L117.699 35.7195L117.284 33.7629ZM114.648 35.1318V47.1069H116.648V35.1318H114.648ZM115.441 48.0852L117.284 48.4758L117.699 46.5193L115.855 46.1287L115.441 48.0852ZM116.491 47.4976V50H118.491V47.4976H116.491ZM117.491 49H109.532V51H117.491V49ZM110.532 50V47.4976H108.532V50H110.532ZM109.732 48.4774L111.648 48.0868L111.249 46.1271L109.333 46.5177L109.732 48.4774ZM112.449 47.1069V44.7876H110.449V47.1069H112.449ZM112.449 44.7993L112.546 36.4375L110.546 36.4141L110.449 44.7759L112.449 44.7993ZM111.711 35.4394L111.638 35.4272L111.309 37.4L111.382 37.4122L111.711 35.4394ZM110.535 36.0664L105.506 49.6529L107.382 50.3471L112.411 36.7607L110.535 36.0664ZM106.444 49H103.075V51H106.444V49ZM104.009 49.6448L98.907 36.217L97.0374 36.9275L102.14 50.3552L104.009 49.6448ZM97.8307 35.5823L97.7453 35.5945L98.0281 37.5744L98.1136 37.5622L97.8307 35.5823ZM96.8875 36.6229L97.1804 44.2401L99.1789 44.1632L98.886 36.546L96.8875 36.6229ZM97.1797 44.2017V47.1069H99.1797V44.2017H97.1797ZM97.9936 48.0895L100.057 48.4801L100.429 46.515L98.3657 46.1244L97.9936 48.0895ZM99.2427 47.4976V50H101.243V47.4976H99.2427ZM100.243 49H92.2715V51H100.243V49ZM121.112 50H120.112V51H121.112V50ZM121.112 47.4976L120.966 46.5082L120.112 46.6339V47.4976H121.112ZM122.357 47.3145L122.502 48.3038L123.1 48.2159L123.3 47.6458L122.357 47.3145ZM127.655 32.2266V31.2266H126.946L126.711 31.8953L127.655 32.2266ZM132.293 32.2266L133.237 31.8946L133.002 31.2266H132.293V32.2266ZM137.604 47.3145L136.66 47.6464L136.861 48.216L137.458 48.3038L137.604 47.3145ZM138.849 47.4976H139.849V46.6339L138.994 46.5082L138.849 47.4976ZM138.849 50V51H139.849V50H138.849ZM132.208 50H131.208V51H132.208V50ZM132.208 47.4976L132.022 46.515L131.208 46.6692V47.4976H132.208ZM133.368 47.2778L133.554 48.2604L134.623 48.0578L134.331 47.0096L133.368 47.2778ZM132.831 45.3491L133.794 45.0808L133.59 44.3491H132.831V45.3491ZM127.118 45.3491V44.3491H126.349L126.151 45.0922L127.118 45.3491ZM126.605 47.2778L125.639 47.0209L125.362 48.0602L126.419 48.2604L126.605 47.2778ZM127.765 47.4976H128.765V46.6692L127.951 46.515L127.765 47.4976ZM127.765 50V51H128.765V50H127.765ZM128.021 42.3462L127.068 42.0444L126.656 43.3462H128.021V42.3462ZM131.915 42.3462V43.3462H133.288L132.867 42.0397L131.915 42.3462ZM130.182 36.9629L129.227 37.2622L129.23 37.2694L130.182 36.9629ZM129.986 36.3403L130.94 36.041L130.721 35.3403H129.986V36.3403ZM129.913 36.3403V35.3403H129.172L128.956 36.0499L129.913 36.3403ZM129.706 37.0239L130.659 37.3257L130.662 37.3144L129.706 37.0239ZM122.112 50V47.4976H120.112V50H122.112ZM121.257 48.4869L122.502 48.3038L122.211 46.3251L120.966 46.5082L121.257 48.4869ZM123.3 47.6458L128.598 32.5579L126.711 31.8953L121.413 46.9832L123.3 47.6458ZM127.655 33.2266H132.293V31.2266H127.655V33.2266ZM131.35 32.5585L136.66 47.6464L138.547 46.9825L133.237 31.8946L131.35 32.5585ZM137.458 48.3038L138.703 48.4869L138.994 46.5082L137.749 46.3251L137.458 48.3038ZM137.849 47.4976V50H139.849V47.4976H137.849ZM138.849 49H132.208V51H138.849V49ZM133.208 50V47.4976H131.208V50H133.208ZM132.394 48.4801L133.554 48.2604L133.182 46.2953L132.022 46.515L132.394 48.4801ZM134.331 47.0096L133.794 45.0808L131.867 45.6174L132.404 47.5461L134.331 47.0096ZM132.831 44.3491H127.118V46.3491H132.831V44.3491ZM126.151 45.0922L125.639 47.0209L127.571 47.5347L128.084 45.606L126.151 45.0922ZM126.419 48.2604L127.578 48.4801L127.951 46.515L126.791 46.2953L126.419 48.2604ZM126.765 47.4976V50H128.765V47.4976H126.765ZM127.765 49H121.112V51H127.765V49ZM128.021 43.3462H131.915V41.3462H128.021V43.3462ZM132.867 42.0397L131.134 36.6564L129.23 37.2694L130.963 42.6527L132.867 42.0397ZM131.136 36.6636L130.94 36.041L129.032 36.6397L129.227 37.2622L131.136 36.6636ZM129.986 35.3403H129.913V37.3403H129.986V35.3403ZM128.956 36.0499L128.749 36.7334L130.662 37.3144L130.87 36.6308L128.956 36.0499ZM128.752 36.7222L127.068 42.0444L128.974 42.648L130.659 37.3257L128.752 36.7222ZM144.618 50H143.618V51H144.618V50ZM144.618 47.4976L144.409 46.5196L143.618 46.6884V47.4976H144.618ZM146.449 47.1069L146.657 48.0849L147.449 47.9161V47.1069H146.449ZM146.449 35.1318H147.449V34.3227L146.657 34.1538L146.449 35.1318ZM144.618 34.7412H143.618V35.5504L144.409 35.7192L144.618 34.7412ZM144.618 32.2266V31.2266H143.618V32.2266H144.618ZM150.807 32.2266L151.654 31.6956L151.36 31.2266H150.807V32.2266ZM157.936 43.6035L157.088 44.1345L157.382 44.6035H157.936V43.6035ZM158.009 43.6035V44.6035H159.009V43.6035H158.009ZM158.009 35.1318H159.009V34.2854L158.174 34.1456L158.009 35.1318ZM155.677 34.7412H154.677V35.5876L155.512 35.7275L155.677 34.7412ZM155.677 32.2266V31.2266H154.677V32.2266H155.677ZM163.648 32.2266H164.648V31.2266H163.648V32.2266ZM163.648 34.7412L163.856 35.7195L164.648 35.5515V34.7412H163.648ZM161.805 35.1318L161.598 34.1536L160.805 34.3215V35.1318H161.805ZM161.805 50V51H162.805V50H161.805ZM157.582 50L156.744 50.5464L157.04 51H157.582V50ZM150.318 38.8672L151.156 38.3208L150.86 37.8672H150.318V38.8672ZM150.245 38.8672V37.8672H149.245V38.8672H150.245ZM150.245 47.1069H149.245V47.9541L150.081 48.0933L150.245 47.1069ZM152.589 47.4976H153.589V46.6504L152.753 46.5112L152.589 47.4976ZM152.589 50V51H153.589V50H152.589ZM145.618 50V47.4976H143.618V50H145.618ZM144.826 48.4756L146.657 48.0849L146.24 46.1289L144.409 46.5196L144.826 48.4756ZM147.449 47.1069V35.1318H145.449V47.1069H147.449ZM146.657 34.1538L144.826 33.7632L144.409 35.7192L146.24 36.1098L146.657 34.1538ZM145.618 34.7412V32.2266H143.618V34.7412H145.618ZM144.618 33.2266H150.807V31.2266H144.618V33.2266ZM149.959 32.7575L157.088 44.1345L158.783 43.0725L151.654 31.6956L149.959 32.7575ZM157.936 44.6035H158.009V42.6035H157.936V44.6035ZM159.009 43.6035V35.1318H157.009V43.6035H159.009ZM158.174 34.1456L155.842 33.755L155.512 35.7275L157.844 36.1181L158.174 34.1456ZM156.677 34.7412V32.2266H154.677V34.7412H156.677ZM155.677 33.2266H163.648V31.2266H155.677V33.2266ZM162.648 32.2266V34.7412H164.648V32.2266H162.648ZM163.441 33.7629L161.598 34.1536L162.012 36.1101L163.856 35.7195L163.441 33.7629ZM160.805 35.1318V50H162.805V35.1318H160.805ZM161.805 49H157.582V51H161.805V49ZM158.419 49.4536L151.156 38.3208L149.481 39.4136L156.744 50.5464L158.419 49.4536ZM150.318 37.8672H150.245V39.8672H150.318V37.8672ZM149.245 38.8672V47.1069H151.245V38.8672H149.245ZM150.081 48.0933L152.424 48.484L152.753 46.5112L150.41 46.1205L150.081 48.0933ZM151.589 47.4976V50H153.589V47.4976H151.589ZM152.589 49H144.618V51H152.589V49Z" fill="#5B5B5B" fill-opacity="0.42"/>
</g>
</g>
<defs>
<filter id="filter0_d_428_58" x="0" y="-19" width="76" height="76" filterUnits="userSpaceOnUse" color-interpolation-filters="sRGB">
<feFlood flood-opacity="0" result="BackgroundImageFix"/>
<feColorMatrix in="SourceAlpha" type="matrix" values="0 0 0 0 0 0 0 0 0 0 0 0 0 0 0 0 0 0 127 0" result="hardAlpha"/>
<feMorphology radius="4" operator="dilate" in="SourceAlpha" result="effect1_dropShadow_428_58"/>
<feOffset/>
<feGaussianBlur stdDeviation="15"/>
<feComposite in2="hardAlpha" operator="out"/>
<feColorMatrix type="matrix" values="0 0 0 0 0.988235 0 0 0 0 0.92549 0 0 0 0 0.403922 0 0 0 1 0"/>
<feBlend mode="normal" in2="BackgroundImageFix" result="effect1_dropShadow_428_58"/>
<feBlend mode="normal" in="SourceGraphic" in2="effect1_dropShadow_428_58" result="shape"/>
</filter>
<filter id="filter1_d_428_58" x="0" y="24" width="76" height="76" filterUnits="userSpaceOnUse" color-interpolation-filters="sRGB">
<feFlood flood-opacity="0" result="BackgroundImageFix"/>
<feColorMatrix in="SourceAlpha" type="matrix" values="0 0 0 0 0 0 0 0 0 0 0 0 0 0 0 0 0 0 127 0" result="hardAlpha"/>
<feMorphology radius="4" operator="dilate" in="SourceAlpha" result="effect1_dropShadow_428_58"/>
<feOffset/>
<feGaussianBlur stdDeviation="15"/>
<feComposite in2="hardAlpha" operator="out"/>
<feColorMatrix type="matrix" values="0 0 0 0 0.988235 0 0 0 0 0.92549 0 0 0 0 0.403922 0 0 0 1 0"/>
<feBlend mode="normal" in2="BackgroundImageFix" result="effect1_dropShadow_428_58"/>
<feBlend mode="normal" in="SourceGraphic" in2="effect1_dropShadow_428_58" result="shape"/>
</filter>
<filter id="filter2_d_428_58" x="18" y="-19" width="76" height="76" filterUnits="userSpaceOnUse" color-interpolation-filters="sRGB">
<feFlood flood-opacity="0" result="BackgroundImageFix"/>
<feColorMatrix in="SourceAlpha" type="matrix" values="0 0 0 0 0 0 0 0 0 0 0 0 0 0 0 0 0 0 127 0" result="hardAlpha"/>
<feMorphology radius="4" operator="dilate" in="SourceAlpha" result="effect1_dropShadow_428_58"/>
<feOffset/>
<feGaussianBlur stdDeviation="15"/>
<feComposite in2="hardAlpha" operator="out"/>
<feColorMatrix type="matrix" values="0 0 0 0 0.988235 0 0 0 0 0.92549 0 0 0 0 0.403922 0 0 0 1 0"/>
<feBlend mode="normal" in2="BackgroundImageFix" result="effect1_dropShadow_428_58"/>
<feBlend mode="normal" in="SourceGraphic" in2="effect1_dropShadow_428_58" result="shape"/>
</filter>
<filter id="filter3_d_428_58" x="18" y="24" width="76" height="76" filterUnits="userSpaceOnUse" color-interpolation-filters="sRGB">
<feFlood flood-opacity="0" result="BackgroundImageFix"/>
<feColorMatrix in="SourceAlpha" type="matrix" values="0 0 0 0 0 0 0 0 0 0 0 0 0 0 0 0 0 0 127 0" result="hardAlpha"/>
<feMorphology radius="4" operator="dilate" in="SourceAlpha" result="effect1_dropShadow_428_58"/>
<feOffset/>
<feGaussianBlur stdDeviation="15"/>
<feComposite in2="hardAlpha" operator="out"/>
<feColorMatrix type="matrix" values="0 0 0 0 0.988235 0 0 0 0 0.92549 0 0 0 0 0.403922 0 0 0 1 0"/>
<feBlend mode="normal" in2="BackgroundImageFix" result="effect1_dropShadow_428_58"/>
<feBlend mode="normal" in="SourceGraphic" in2="effect1_dropShadow_428_58" result="shape"/>
</filter>
<filter id="filter4_d_428_58" x="36" y="-19" width="76" height="76" filterUnits="userSpaceOnUse" color-interpolation-filters="sRGB">
<feFlood flood-opacity="0" result="BackgroundImageFix"/>
<feColorMatrix in="SourceAlpha" type="matrix" values="0 0 0 0 0 0 0 0 0 0 0 0 0 0 0 0 0 0 127 0" result="hardAlpha"/>
<feMorphology radius="4" operator="dilate" in="SourceAlpha" result="effect1_dropShadow_428_58"/>
<feOffset/>
<feGaussianBlur stdDeviation="15"/>
<feComposite in2="hardAlpha" operator="out"/>
<feColorMatrix type="matrix" values="0 0 0 0 0.988235 0 0 0 0 0.92549 0 0 0 0 0.403922 0 0 0 1 0"/>
<feBlend mode="normal" in2="BackgroundImageFix" result="effect1_dropShadow_428_58"/>
<feBlend mode="normal" in="SourceGraphic" in2="effect1_dropShadow_428_58" result="shape"/>
</filter>
<filter id="filter5_d_428_58" x="36" y="24" width="76" height="76" filterUnits="userSpaceOnUse" color-interpolation-filters="sRGB">
<feFlood flood-opacity="0" result="BackgroundImageFix"/>
<feColorMatrix in="SourceAlpha" type="matrix" values="0 0 0 0 0 0 0 0 0 0 0 0 0 0 0 0 0 0 127 0" result="hardAlpha"/>
<feMorphology radius="4" operator="dilate" in="SourceAlpha" result="effect1_dropShadow_428_58"/>
<feOffset/>
<feGaussianBlur stdDeviation="15"/>
<feComposite in2="hardAlpha" operator="out"/>
<feColorMatrix type="matrix" values="0 0 0 0 0.988235 0 0 0 0 0.92549 0 0 0 0 0.403922 0 0 0 1 0"/>
<feBlend mode="normal" in2="BackgroundImageFix" result="effect1_dropShadow_428_58"/>
<feBlend mode="normal" in="SourceGraphic" in2="effect1_dropShadow_428_58" result="shape"/>
</filter>
<filter id="filter6_d_428_58" x="54" y="-19" width="76" height="76" filterUnits="userSpaceOnUse" color-interpolation-filters="sRGB">
<feFlood flood-opacity="0" result="BackgroundImageFix"/>
<feColorMatrix in="SourceAlpha" type="matrix" values="0 0 0 0 0 0 0 0 0 0 0 0 0 0 0 0 0 0 127 0" result="hardAlpha"/>
<feMorphology radius="4" operator="dilate" in="SourceAlpha" result="effect1_dropShadow_428_58"/>
<feOffset/>
<feGaussianBlur stdDeviation="15"/>
<feComposite in2="hardAlpha" operator="out"/>
<feColorMatrix type="matrix" values="0 0 0 0 0.988235 0 0 0 0 0.92549 0 0 0 0 0.403922 0 0 0 1 0"/>
<feBlend mode="normal" in2="BackgroundImageFix" result="effect1_dropShadow_428_58"/>
<feBlend mode="normal" in="SourceGraphic" in2="effect1_dropShadow_428_58" result="shape"/>
</filter>
<filter id="filter7_d_428_58" x="54" y="24" width="76" height="76" filterUnits="userSpaceOnUse" color-interpolation-filters="sRGB">
<feFlood flood-opacity="0" result="BackgroundImageFix"/>
<feColorMatrix in="SourceAlpha" type="matrix" values="0 0 0 0 0 0 0 0 0 0 0 0 0 0 0 0 0 0 127 0" result="hardAlpha"/>
<feMorphology radius="4" operator="dilate" in="SourceAlpha" result="effect1_dropShadow_428_58"/>
<feOffset/>
<feGaussianBlur stdDeviation="15"/>
<feComposite in2="hardAlpha" operator="out"/>
<feColorMatrix type="matrix" values="0 0 0 0 0.988235 0 0 0 0 0.92549 0 0 0 0 0.403922 0 0 0 1 0"/>
<feBlend mode="normal" in2="BackgroundImageFix" result="effect1_dropShadow_428_58"/>
<feBlend mode="normal" in="SourceGraphic" in2="effect1_dropShadow_428_58" result="shape"/>
</filter>
<filter id="filter8_d_428_58" x="72" y="-19" width="76" height="76" filterUnits="userSpaceOnUse" color-interpolation-filters="sRGB">
<feFlood flood-opacity="0" result="BackgroundImageFix"/>
<feColorMatrix in="SourceAlpha" type="matrix" values="0 0 0 0 0 0 0 0 0 0 0 0 0 0 0 0 0 0 127 0" result="hardAlpha"/>
<feMorphology radius="4" operator="dilate" in="SourceAlpha" result="effect1_dropShadow_428_58"/>
<feOffset/>
<feGaussianBlur stdDeviation="15"/>
<feComposite in2="hardAlpha" operator="out"/>
<feColorMatrix type="matrix" values="0 0 0 0 0.988235 0 0 0 0 0.92549 0 0 0 0 0.403922 0 0 0 1 0"/>
<feBlend mode="normal" in2="BackgroundImageFix" result="effect1_dropShadow_428_58"/>
<feBlend mode="normal" in="SourceGraphic" in2="effect1_dropShadow_428_58" result="shape"/>
</filter>
<filter id="filter9_d_428_58" x="72" y="24" width="76" height="76" filterUnits="userSpaceOnUse" color-interpolation-filters="sRGB">
<feFlood flood-opacity="0" result="BackgroundImageFix"/>
<feColorMatrix in="SourceAlpha" type="matrix" values="0 0 0 0 0 0 0 0 0 0 0 0 0 0 0 0 0 0 127 0" result="hardAlpha"/>
<feMorphology radius="4" operator="dilate" in="SourceAlpha" result="effect1_dropShadow_428_58"/>
<feOffset/>
<feGaussianBlur stdDeviation="15"/>
<feComposite in2="hardAlpha" operator="out"/>
<feColorMatrix type="matrix" values="0 0 0 0 0.988235 0 0 0 0 0.92549 0 0 0 0 0.403922 0 0 0 1 0"/>
<feBlend mode="normal" in2="BackgroundImageFix" result="effect1_dropShadow_428_58"/>
<feBlend mode="normal" in="SourceGraphic" in2="effect1_dropShadow_428_58" result="shape"/>
</filter>
<filter id="filter10_d_428_58" x="90" y="-19" width="76" height="76" filterUnits="userSpaceOnUse" color-interpolation-filters="sRGB">
<feFlood flood-opacity="0" result="BackgroundImageFix"/>
<feColorMatrix in="SourceAlpha" type="matrix" values="0 0 0 0 0 0 0 0 0 0 0 0 0 0 0 0 0 0 127 0" result="hardAlpha"/>
<feMorphology radius="4" operator="dilate" in="SourceAlpha" result="effect1_dropShadow_428_58"/>
<feOffset/>
<feGaussianBlur stdDeviation="15"/>
<feComposite in2="hardAlpha" operator="out"/>
<feColorMatrix type="matrix" values="0 0 0 0 0.988235 0 0 0 0 0.92549 0 0 0 0 0.403922 0 0 0 1 0"/>
<feBlend mode="normal" in2="BackgroundImageFix" result="effect1_dropShadow_428_58"/>
<feBlend mode="normal" in="SourceGraphic" in2="effect1_dropShadow_428_58" result="shape"/>
</filter>
<filter id="filter11_d_428_58" x="90" y="24" width="76" height="76" filterUnits="userSpaceOnUse" color-interpolation-filters="sRGB">
<feFlood flood-opacity="0" result="BackgroundImageFix"/>
<feColorMatrix in="SourceAlpha" type="matrix" values="0 0 0 0 0 0 0 0 0 0 0 0 0 0 0 0 0 0 127 0" result="hardAlpha"/>
<feMorphology radius="4" operator="dilate" in="SourceAlpha" result="effect1_dropShadow_428_58"/>
<feOffset/>
<feGaussianBlur stdDeviation="15"/>
<feComposite in2="hardAlpha" operator="out"/>
<feColorMatrix type="matrix" values="0 0 0 0 0.988235 0 0 0 0 0.92549 0 0 0 0 0.403922 0 0 0 1 0"/>
<feBlend mode="normal" in2="BackgroundImageFix" result="effect1_dropShadow_428_58"/>
<feBlend mode="normal" in="SourceGraphic" in2="effect1_dropShadow_428_58" result="shape"/>
</filter>
<filter id="filter12_d_428_58" x="108" y="-19" width="76" height="76" filterUnits="userSpaceOnUse" color-interpolation-filters="sRGB">
<feFlood flood-opacity="0" result="BackgroundImageFix"/>
<feColorMatrix in="SourceAlpha" type="matrix" values="0 0 0 0 0 0 0 0 0 0 0 0 0 0 0 0 0 0 127 0" result="hardAlpha"/>
<feMorphology radius="4" operator="dilate" in="SourceAlpha" result="effect1_dropShadow_428_58"/>
<feOffset/>
<feGaussianBlur stdDeviation="15"/>
<feComposite in2="hardAlpha" operator="out"/>
<feColorMatrix type="matrix" values="0 0 0 0 0.988235 0 0 0 0 0.92549 0 0 0 0 0.403922 0 0 0 1 0"/>
<feBlend mode="normal" in2="BackgroundImageFix" result="effect1_dropShadow_428_58"/>
<feBlend mode="normal" in="SourceGraphic" in2="effect1_dropShadow_428_58" result="shape"/>
</filter>
<filter id="filter13_d_428_58" x="126" y="-19" width="76" height="76" filterUnits="userSpaceOnUse" color-interpolation-filters="sRGB">
<feFlood flood-opacity="0" result="BackgroundImageFix"/>
<feColorMatrix in="SourceAlpha" type="matrix" values="0 0 0 0 0 0 0 0 0 0 0 0 0 0 0 0 0 0 127 0" result="hardAlpha"/>
<feMorphology radius="4" operator="dilate" in="SourceAlpha" result="effect1_dropShadow_428_58"/>
<feOffset/>
<feGaussianBlur stdDeviation="15"/>
<feComposite in2="hardAlpha" operator="out"/>
<feColorMatrix type="matrix" values="0 0 0 0 0.988235 0 0 0 0 0.92549 0 0 0 0 0.403922 0 0 0 1 0"/>
<feBlend mode="normal" in2="BackgroundImageFix" result="effect1_dropShadow_428_58"/>
<feBlend mode="normal" in="SourceGraphic" in2="effect1_dropShadow_428_58" result="shape"/>
</filter>
<filter id="filter14_d_428_58" x="108" y="24" width="76" height="76" filterUnits="userSpaceOnUse" color-interpolation-filters="sRGB">
<feFlood flood-opacity="0" result="BackgroundImageFix"/>
<feColorMatrix in="SourceAlpha" type="matrix" values="0 0 0 0 0 0 0 0 0 0 0 0 0 0 0 0 0 0 127 0" result="hardAlpha"/>
<feMorphology radius="4" operator="dilate" in="SourceAlpha" result="effect1_dropShadow_428_58"/>
<feOffset/>
<feGaussianBlur stdDeviation="15"/>
<feComposite in2="hardAlpha" operator="out"/>
<feColorMatrix type="matrix" values="0 0 0 0 0.988235 0 0 0 0 0.92549 0 0 0 0 0.403922 0 0 0 1 0"/>
<feBlend mode="normal" in2="BackgroundImageFix" result="effect1_dropShadow_428_58"/>
<feBlend mode="normal" in="SourceGraphic" in2="effect1_dropShadow_428_58" result="shape"/>
</filter>
<filter id="filter15_d_428_58" x="126" y="24" width="76" height="76" filterUnits="userSpaceOnUse" color-interpolation-filters="sRGB">
<feFlood flood-opacity="0" result="BackgroundImageFix"/>
<feColorMatrix in="SourceAlpha" type="matrix" values="0 0 0 0 0 0 0 0 0 0 0 0 0 0 0 0 0 0 127 0" result="hardAlpha"/>
<feMorphology radius="4" operator="dilate" in="SourceAlpha" result="effect1_dropShadow_428_58"/>
<feOffset/>
<feGaussianBlur stdDeviation="15"/>
<feComposite in2="hardAlpha" operator="out"/>
<feColorMatrix type="matrix" values="0 0 0 0 0.988235 0 0 0 0 0.92549 0 0 0 0 0.403922 0 0 0 1 0"/>
<feBlend mode="normal" in2="BackgroundImageFix" result="effect1_dropShadow_428_58"/>
<feBlend mode="normal" in="SourceGraphic" in2="effect1_dropShadow_428_58" result="shape"/>
</filter>
<filter id="filter16_d_428_58" x="27.2305" y="23.9458" width="144.418" height="34.3105" filterUnits="userSpaceOnUse" color-interpolation-filters="sRGB">
<feFlood flood-opacity="0" result="BackgroundImageFix"/>
<feColorMatrix in="SourceAlpha" type="matrix" values="0 0 0 0 0 0 0 0 0 0 0 0 0 0 0 0 0 0 127 0" result="hardAlpha"/>
<feOffset/>
<feGaussianBlur stdDeviation="4"/>
<feColorMatrix type="matrix" values="0 0 0 0 0.988235 0 0 0 0 0.92549 0 0 0 0 0.403922 0 0 0 1 0"/>
<feBlend mode="normal" in2="BackgroundImageFix" result="effect1_dropShadow_428_58"/>
<feBlend mode="normal" in="SourceGraphic" in2="effect1_dropShadow_428_58" result="shape"/>
</filter>
</defs>
</svg>
